<svg xmlns="http://www.w3.org/2000/svg" viewBox="0 0 16 16"><path d="M13.59 2.95c.101 0 .205.027.306.047.271.05.527.165.743.337.236.182.418.425.528.704.164.405.164.86 0 1.265a3.557 3.557 0 0 1-.377.677l-.43.657a.438.438 0 0 0-.02.04h1.604c.073 0 .073.357.01.357H14.15a.108.108 0 0 0-.1.057l-.868 1.347-1.038 1.616c-.256.404-.511.805-.763 1.212-.193.311-.38.626-.562.943a.984.984 0 0 0-.087.253.158.158 0 0 0 .1.168.82.82 0 0 0 .357.087c.463.017.923-.076 1.345-.269.221-.094.433-.212.652-.316a.41.41 0 0 1 .14-.03c.018 0 .045.03.051.05a.195.195 0 0 1-.067.198c-.4.27-.844.469-1.31.59-.39.104-.796.135-1.197.09a.958.958 0 0 1-.673-.37.856.856 0 0 1-.171-.336.964.964 0 0 1 .017-.499c.071-.222.176-.432.309-.623l.766-1.208.47-.741.78-1.229.612-.96v-.03h-1.929a.242.242 0 0 0-.165.054c-.195.168-.39.337-.591.492l-.673.511c-.336.24-.705.472-1.065.7a6.858 6.858 0 0 1-.511.287c-.175.09-.437.232-.672.336-.425.209-.859.396-1.301.563a9.4 9.4 0 0 1-1.301.397c-.282.064-.568.104-.85.148-.309.047-.62.065-.932.054a4.07 4.07 0 0 1-1.317-.219 3.235 3.235 0 0 1-.918-.498 1.78 1.78 0 0 1-.531-.64A1.463 1.463 0 0 1 0 8.704a.064.064 0 0 0 0-.03v-.431c.017-.094.03-.189.054-.283.09-.353.278-.674.541-.926.07-.072.144-.14.222-.202.158-.128.31-.26.474-.374.28-.202.586-.37.907-.498.276-.114.558-.215.827-.316.316-.102.64-.175.968-.216.226-.03.454-.064.673-.077.218-.014.54-.017.813 0 .225.003.45.019.672.047.222.027.44.07.656.114.32.063.63.166.924.307.235.11.446.266.622.458.091.094.157.21.192.336a.047.047 0 0 0 .057.047h1.785a.084.084 0 0 0 .067-.006c.165-.145.336-.293.49-.445.155-.151.357-.337.532-.488.175-.152.292-.29.437-.438l.46-.485.464-.505c.151-.168.356-.4.531-.606.098-.114.188-.232.283-.336h-.02a2.064 2.064 0 0 0-.559 0l-.198.02h-.218a.134.134 0 0 1-.145-.101.182.182 0 0 1 .111-.232.705.705 0 0 1 .151-.054l.27-.034h.547zm-3.586 4.07v-.03H8.659a.148.148 0 0 0-.171.101 1.59 1.59 0 0 1-.73.741c-.337.181-.695.32-1.065.414-.464.122-.94.192-1.419.209-.43.021-.86.006-1.287-.047a3.253 3.253 0 0 1-.938-.236 1.103 1.103 0 0 1-.528-.438.58.58 0 0 1 .111-.737.944.944 0 0 1 .49-.236 10.26 10.26 0 0 1 1.644-.128h3.362l-.05-.06a1.052 1.052 0 0 0-.438-.256 5.411 5.411 0 0 0-.96-.232A9.84 9.84 0 0 0 5.5 5.98a8.138 8.138 0 0 0-1.13.034c-.262.03-.521.06-.78.104a6.731 6.731 0 0 0-1.68.482 3.438 3.438 0 0 0-.918.579c-.187.154-.336.35-.434.572a.826.826 0 0 0-.067.31.809.809 0 0 0 .144.434c.168.253.4.457.673.59.27.136.556.242.85.316a5.2 5.2 0 0 0 1.11.162c.282 0 .56.016.84.016.328 0 .656-.026.981-.077.27-.04.541-.08.804-.145.262-.064.594-.168.887-.27.245-.081.484-.18.716-.292a8.36 8.36 0 0 0 .77-.458c.377-.24.739-.504 1.082-.791l.656-.525zm1.26-.387h1.845a.07.07 0 0 0 .054-.033l.27-.445.853-1.447c.11-.188.189-.393.232-.607a.533.533 0 0 0-.04-.373.74.74 0 0 0-.407-.337 17.288 17.288 0 0 1-2.807 3.242zm-3.197.38h-2.8a54.09 54.09 0 0 0-1.344.078c-.219 0-.434.047-.652.081a.914.914 0 0 0-.347.155.155.155 0 0 0 0 .273c.15.104.317.18.495.222.342.087.695.129 1.048.125.239 0 .478 0 .72-.024a4.85 4.85 0 0 0 .585-.06c.282-.051.56-.115.836-.186.393-.1.77-.253 1.123-.454.121-.064.225-.138.336-.21z"/></svg>