<svg xmlns="http://www.w3.org/2000/svg" xmlns:xlink="http://www.w3.org/1999/xlink" fill="#ffffff" height="800px" width="800px" version="1.1" id="Layer_1" viewBox="0 0 40 40" xml:space="preserve">
<g id="XMLID_826_">
      <path d="M11.5 16.894c0 2.174.822 4.107 2.584 4.828.288.118.547.004.63-.317.059-.221.197-.78.258-1.014.084-.317.052-.428-.182-.704-.507-.6-.832-1.377-.832-2.479 0-3.193 2.385-6.052 6.21-6.052 3.388 0 5.249 2.074 5.249 4.843 0 3.644-1.61 6.72-3.999 6.72-1.32 0-2.307-1.094-1.99-2.435.378-1.6 1.112-3.329 1.112-4.484 0-1.035-.554-1.897-1.7-1.897-1.349 0-2.434 1.398-2.434 3.27 0 1.193.403 2 .403 2l-1.622 6.886c-.482 2.044-.072 4.549-.038 4.802.02.15.212.186.3.073.124-.164 1.73-2.15 2.278-4.136.153-.562.886-3.473.886-3.473.439.837 1.72 1.575 3.081 1.575 4.055 0 6.806-3.704 6.806-8.66 0-3.75-3.17-7.24-7.985-7.24-5.993 0-9.015 4.305-9.015 7.894z" fill="#ffffff"/>
</g>
</svg>