<svg xmlns="http://www.w3.org/2000/svg" xmlns:xlink="http://www.w3.org/1999/xlink" fill="#ffffff" height="800px" width="800px" version="1.1" id="Layer_1" viewBox="0 0 40 40" xml:space="preserve">
<g id="XMLID_826_">
	<path d="M31.735 13.873h-.742a.665.665 0 0 0-.616.41l-6.326 15.36a.499.499 0 0 1-.915.014l-2.934-6.516-3.169 6.579a.5.5 0 0 1-.907-.022L9.577 14.276a.665.665 0 0 0-.613-.403h-.699A.264.264 0 0 1 8 13.61V13h6.03l-.017.618a.264.264 0 0 1-.265.255h-1.01a.527.527 0 0 0-.494.72l4.9 12.264 2.477-5.314-3.131-7.27a.666.666 0 0 0-.612-.4h-.487a.264.264 0 0 1-.265-.263V13h4.528v.61a.263.263 0 0 1-.204.256l-.06.007a.527.527 0 0 0-.49.734l1.85 4.265 1.89-4.261a.527.527 0 0 0-.487-.738h-.708a.264.264 0 0 1-.265-.263V13h4.742v.61a.264.264 0 0 1-.265.263h-.789a.666.666 0 0 0-.602.379l-2.92 6.177 2.726 6.337 4.769-12.18a.527.527 0 0 0-.497-.713h-1.18a.264.264 0 0 1-.264-.262V13H32v.61c0 .144-.12.262-.265.262z" fill="#ffffff"/>
</g>
</svg>